<?xml version="1.0" encoding="UTF-8" standalone="no"?>
<!DOCTYPE svg PUBLIC "-//W3C//DTD SVG 1.1//EN" "http://www.w3.org/Graphics/SVG/1.1/DTD/svg11.dtd">
<svg version="1.1" xmlns="http://www.w3.org/2000/svg" xmlns:xlink="http://www.w3.org/1999/xlink" preserveAspectRatio="xMidYMid meet" viewBox="257 177 126 146" width="120" height="140"><defs><path d="M360 200C360 205.52 355.52 210 350 210C344.48 210 340 205.52 340 200C340 194.48 344.48 190 350 190C355.52 190 360 194.48 360 200Z" id="hxEuUrBeX"></path><path d="M280 260L260 260" id="a748bFuHuH"></path><path d="M340 260L320 260" id="bwgQxBNtW"></path><path d="M320 240L360 240L380 220L380 200L360 180L320 180L300 200L300 320" id="c4LuumJuZZ"></path><path d="M280 310L280 320L290 320L300 320L300 310" id="a1JWpAIODS"></path></defs><g><g><use xlink:href="#hxEuUrBeX" opacity="1" fill="#000000" fill-opacity="1"></use></g><g><g><use xlink:href="#a748bFuHuH" opacity="1" fill-opacity="0" stroke="#000000" stroke-width="6" stroke-opacity="1"></use></g></g><g><g><use xlink:href="#bwgQxBNtW" opacity="1" fill-opacity="0" stroke="#000000" stroke-width="6" stroke-opacity="1"></use></g></g><g><g><use xlink:href="#c4LuumJuZZ" opacity="1" fill-opacity="0" stroke="#000000" stroke-width="6" stroke-opacity="1"></use></g></g><g><g><use xlink:href="#a1JWpAIODS" opacity="1" fill-opacity="0" stroke="#000000" stroke-width="6" stroke-opacity="1"></use></g></g></g></svg>