<?xml version="1.0" encoding="UTF-8" standalone="no"?>
<!DOCTYPE svg PUBLIC "-//W3C//DTD SVG 1.1//EN" "http://www.w3.org/Graphics/SVG/1.1/DTD/svg11.dtd">
<svg version="1.1" xmlns="http://www.w3.org/2000/svg" xmlns:xlink="http://www.w3.org/1999/xlink" preserveAspectRatio="xMidYMid meet" viewBox="257 175.45000000000005 126 147.54999999999995" width="120" height="141.55"><defs><path d="M363 201.5C363 207.85 357.85 213 351.5 213C345.15 213 340 207.85 340 201.5C340 195.15 345.15 190 351.5 190C357.85 190 363 195.15 363 201.5Z" id="at7AiqrMb"></path><path d="M280 260L260 260" id="isPfHselC"></path><path d="M340 260L320 260" id="ayWDJz1cm"></path><path d="M320 238.45L360 238.45L380 218.45L380 198.45L360 178.45L320 178.45L300 198.45L300 318.45" id="a4ZL2eVVwI"></path><path d="M280 310L280 320L290 320L300 320L300 310" id="hWFEAQxl"></path></defs><g><g><use xlink:href="#at7AiqrMb" opacity="1" fill-opacity="1"></use></g><g><g><use xlink:href="#isPfHselC" opacity="1" fill-opacity="0" stroke="#000000" stroke-width="6" stroke-opacity="1"></use></g></g><g><g><use xlink:href="#ayWDJz1cm" opacity="1" fill-opacity="0" stroke="#000000" stroke-width="6" stroke-opacity="1"></use></g></g><g><g><use xlink:href="#a4ZL2eVVwI" opacity="1" fill-opacity="0" stroke="#000000" stroke-width="6" stroke-opacity="1"></use></g></g><g><g><use xlink:href="#hWFEAQxl" opacity="1" fill-opacity="0" stroke="#000000" stroke-width="6" stroke-opacity="1"></use></g></g></g></svg>